<?xml version="1.0" standalone="no"?>
<!DOCTYPE svg PUBLIC "-//W3C//DTD SVG 20010904//EN"
 "http://www.w3.org/TR/2001/REC-SVG-20010904/DTD/svg10.dtd">
<svg version="1.0" xmlns="http://www.w3.org/2000/svg"
 width="16.000000pt" height="34.000000pt" viewBox="0 0 216.000000 234.000000"
 preserveAspectRatio="xMidYMid meet">

<g transform="translate(0.000000,234.000000) scale(0.100000,-0.100000)"
fill="#808080" stroke="none">
<path d="M790 2330 c-368 -44 -688 -336 -767 -704 -20 -92 -20 -280 0 -372 69
-322 319 -587 637 -678 200 -57 433 -36 629 56 l63 31 277 -277 276 -276 125
125 125 125 -269 269 -269 269 42 67 c91 144 134 295 134 475 0 189 -46 342
-148 496 -187 280 -519 433 -855 394z m251 -366 c187 -55 327 -195 383 -383 9
-32 16 -91 16 -141 0 -150 -52 -274 -159 -381 -107 -107 -231 -159 -381 -159
-150 0 -274 52 -381 159 -107 107 -159 231 -159 381 0 242 152 445 390 521 72
23 217 25 291 3z"/>
</g>
</svg>
